<svg xmlns="http://www.w3.org/2000/svg" width="2163" height="486" viewBox="0 0 2163 486">
  <defs>
    <style>
      .cls-1 {
        fill: #050f5f;
        fill-rule: evenodd;
      }
    </style>
  </defs>
  <path class="cls-1" d="M790.457,121.007c37.376-.282,63.959,11.266,85.128,27.228,2.471,1.864,4.735,3.89,7.125,5.812L885.8,157a29.915,29.915,0,0,1,4.312,4.359c1.817,2.25,4.161,4.149,5.766,6.607L849.85,207.191,849.615,207c-0.64-1.388-2.158-2.492-3.094-3.655a50.1,50.1,0,0,0-8.062-7.78c-7.683-6.024-15.01-10.493-25.548-13.778a78.882,78.882,0,0,0-8.2-1.78c-1.921-.38-4.072-0.411-6.141-0.75l-2.907-.094h-3.937l-4.735.234c-3.311.559-6.5,0.777-9.516,1.547-22.444,5.729-37.322,19.417-45.282,39.647a72.551,72.551,0,0,0-3.282,12.232c-0.369,1.837-.295,3.657-0.609,5.623a24.916,24.916,0,0,0-.188,5.3v2.39q0.212,2.788.422,5.577c0.881,4.932,1.478,9.57,3.094,13.731a65.2,65.2,0,0,0,4.078,9.279c7.167,12.276,16.784,21.34,30.423,27.135a87.921,87.921,0,0,0,9.422,3.093,92.093,92.093,0,0,0,9.7,1.874l4.594,0.375a30.666,30.666,0,0,0,7.266.141c2.386-.387,4.785-0.095,7.031-0.516,5.684-1.063,10.808-2.093,15.563-3.983a81.311,81.311,0,0,0,17.485-9.7c1.691-1.211,3.177-2.695,4.781-3.983a31.089,31.089,0,0,0,4.641-4.406l4.125-4.78q1.29-1.781,2.578-3.562l50.065,36.32v0.094l-4.923,6.046-4.781,5.342-2.016,2.015a26.912,26.912,0,0,1-3.937,3.89l-2.485,2.39-7.125,6a149.64,149.64,0,0,1-13.453,9.185c-9.129,5.469-19.306,9.434-30.611,12.794-4.123,1.226-8.492,1.861-12.891,2.812-3.408.736-6.993,0.819-10.547,1.406l-3.188.234-7.219.469-3.328.047H789.9l-3-.047-7.734-.516-6.188-.7c-5.3-.984-10.528-1.661-15.375-3a154.773,154.773,0,0,1-19.407-6.374c-31.059-13.171-53.872-35.459-66.752-66.828a131.774,131.774,0,0,1-6.422-21.886c-0.737-3.364-.913-6.9-1.5-10.45q-0.235-3.258-.469-6.515-0.024-1.335-.047-2.671v-5.905l0.141-3.608,0.093-2.25q0.4-3.819.8-7.639c1.522-8.2,2.781-15.9,5.485-22.869,2.557-6.6,5.051-12.986,8.438-18.746a153.361,153.361,0,0,1,9.7-14.669c14.388-19.088,36.635-35,62.064-43.021,5.43-1.713,11.084-3.013,17.017-4.312l9.141-1.406,9.656-.843Zm320.163,4.827h62.63V360.672h-62.63v-18.84l-3.93,3.093c-2.63,1.932-5.36,3.783-8.16,5.53-8.02,5-17,8.526-27.1,11.529-19.37,5.761-47.05,3.742-64.83-1.828a128.677,128.677,0,0,1-36.278-17.434c-2.789-1.965-5.408-4.133-8.063-6.232l-3.609-3.281a29.6,29.6,0,0,1-4.36-4.265c-1.888-2.341-4.227-4.356-6.094-6.748-2.775-3.557-5.617-7.138-8.062-11.013-1.951-3.091-3.709-6.308-5.579-9.514-3.111-5.335-5.2-11.424-7.547-17.48-2.267-5.842-3.434-12.3-4.875-18.933l-1.125-7.92q-0.329-4.335-.656-8.67-0.046-1.71-.094-3.421,0.046-2.859.094-5.718,0.071-2.085.14-4.171c0.472-2.963.383-6.052,0.891-8.857,0.68-3.752.958-7.328,1.828-10.826,2.907-11.675,6.293-22.5,11.672-31.727,2.9-4.971,5.616-9.748,8.86-14.294A116.337,116.337,0,0,1,993.62,130.1a129.594,129.594,0,0,1,13.5-4.64c4.04-1.213,8.41-2.023,12.84-2.905l6.15-.844,7.78-.609,2.67-.047h5.95l2.77,0.047,6.09,0.422,5.3,0.609c4.74,0.882,9.4,1.427,13.73,2.718,10.29,3.065,19.59,6.471,27.89,11.435,2.86,1.707,5.67,3.49,8.35,5.389q1.995,1.5,3.98,3v-18.84Zm189.71,234.838h-65.11V125.834h62.63V149.5c1.19-1.3,2.37-2.593,3.56-3.89a69.1,69.1,0,0,1,8.53-7.264c8.8-6.287,18.52-10.342,30.24-13.825,3.41-1.016,6.97-1.423,10.69-2.156,3.28-.646,6.87-0.607,10.4-1.171l4.36-.141h7.45l7.27,0.516,10.17,1.359q-3.75,29.287-7.5,58.58h-0.14c-3.1-1.148-6.89-1.206-10.55-1.828l-2.81-.187c-2.3-.37-4.88.055-7.31-0.328h-4.59l-3.85.187c-2.77.469-5.52,0.682-8.01,1.313a76.649,76.649,0,0,0-27.1,12.559c-2.27,1.623-4.23,3.615-6.37,5.343a50.1,50.1,0,0,0-9,9.982c-0.77,1.068-2.59,3.227-2.96,4.452v147.67Zm202.32-239.665a161.4,161.4,0,0,1,51.24,7.78c12.74,4,24.06,9.061,33.84,15.934q-15.27,22.75-30.56,45.505c-1.1-.734-2.19-1.469-3.28-2.2-1.67-1-3.35-2-5.02-3a85.946,85.946,0,0,0-22.55-8.9c-2.24-.57-4.47-0.776-6.89-1.219a58.091,58.091,0,0,0-27.56,2.3c-5.77,2.246-10.81,5.008-13.22,10.591a13.415,13.415,0,0,0-.7,8.482c1.6,5.122,5.86,7.732,10.12,10.217,3.84,2.24,8.2,3.724,12.61,5.436,6.25,2.428,12.92,4.355,19.46,6.421,28.78,9.093,55.93,20.19,68.72,45.317a66.3,66.3,0,0,1,5.29,16.075c0.43,1.925.42,3.845,0.75,5.9a43.188,43.188,0,0,1,.33,6.936V295.3c-0.42,2.633-.26,5.242-0.75,7.686a71.684,71.684,0,0,1-4.36,14.762c-8.82,20.27-28.93,34.614-51.09,41.615-4.94,1.559-9.98,2.648-15.42,3.843-3.25.711-6.77,0.953-10.22,1.547l-4.74.421-6.94.282h-6.42l-4.08-.141-2.53-.094-7.5-.7c-3.03-.529-5.95-0.587-8.86-1.171-12.16-2.441-23.18-5.028-33.51-9.139a174.169,174.169,0,0,1-28.04-13.684c-2.57-1.606-5.11-3.16-7.54-4.874-0.78-.547-1.57-1.094-2.35-1.64a0.829,0.829,0,0,1,.1-0.094q15.72-22.446,31.45-44.9l0.09,0.094,1.83,1.546,3.99,3.046a82.587,82.587,0,0,0,14.29,8.3,144.405,144.405,0,0,0,16.83,6.186c3.4,1.021,6.98,1.6,10.6,2.391s7.46,0.768,11.34,1.4l4.69,0.235h2.58a40.363,40.363,0,0,0,7.08-.422c1.6-.295,3.05-0.371,4.54-0.75,7.41-1.886,13.59-4.919,17.3-10.5a15,15,0,0,0,1.97-12.279c-3.49-11.379-19.36-16.109-30.38-20.386-5.96-2.315-12.34-3.844-18.37-6.186q-4.065-1.406-8.11-2.812c-5.28-2.051-10.55-3.973-15.61-6.186a111.878,111.878,0,0,1-20.07-11.247c-2.25-1.61-4.28-3.481-6.42-5.2a24.906,24.906,0,0,1-3.61-3.656c-0.98-1.221-2.18-2.3-3.14-3.561A62.973,62.973,0,0,1,1417.62,219a57.734,57.734,0,0,1-4.27-13.4c-2.32-10.555-.54-24.386,2.63-32.523a67.569,67.569,0,0,1,4.45-9.889c8.91-15.144,22.42-25.957,39.28-33.133a125.586,125.586,0,0,1,18.14-5.9c2.99-.763,6.11-1.157,9.24-1.781,3.33-.664,6.85-0.552,10.36-1.124Zm245.49,0c10.32-.067,20.35.382,28.88,2.25,7.79,1.7,15.21,3.3,22.03,5.952,5.49,2.135,11.06,4.193,15.94,7.029s9.7,5.5,14.2,8.67a119.64,119.64,0,0,1,41.49,50.66,137.234,137.234,0,0,1,8.01,26.1c0.65,2.967.79,6.083,1.32,9.185,0.09,1.234.18,2.469,0.28,3.7a55.448,55.448,0,0,1,.33,8.248c-0.02,1.312-.04,2.624-0.05,3.936l-0.33,6.889c-0.69,4.261-.81,8.45-1.69,12.419a139.929,139.929,0,0,1-8.72,27.322,114.607,114.607,0,0,1-13.78,22.683c-12.69,16.816-29.8,29.967-50.48,38.756a161,161,0,0,1-17.02,5.859c-4.88,1.45-10.07,2.189-15.37,3.233l-6.15.8c-3.44.582-7.16,0.19-10.73,0.75l-5.95.047a72.735,72.735,0,0,1-11.16-.516l-3-.234c-3.39-.576-6.79-0.7-10.03-1.406-9.07-1.973-17.45-3.986-25.22-7.077-34.73-13.814-61.65-39.82-73.27-76.67-1.33-4.213-2.41-8.688-3.42-13.309-0.38-2.328-.75-4.656-1.13-6.983l-0.75-7.639-0.09-2.437c-0.05-1.921-.09-3.843-0.14-5.764a65.4,65.4,0,0,1,.42-10.029c0.5-3.109.45-6.072,1.03-9,1.77-8.87,3.62-16.946,6.61-24.463,10.65-26.754,28.48-46.5,51.89-60.5a122.877,122.877,0,0,1,25.97-11.763c5.1-1.608,10.39-2.908,15.94-4.124l9.38-1.5c3.2-.573,6.57-0.372,9.89-0.89ZM2163,360.672l-65.16-.047V257.336c0-20.713,1.06-41.712-6.56-54.785-6.15-10.541-14.71-17.364-27.56-21.229a83.329,83.329,0,0,0-9.15-1.781l-3.7-.328a23.666,23.666,0,0,0-6-.047l-3.47.141c-2.6.428-5.22,0.552-7.59,1.077-15.01,3.323-25.02,8.762-35.25,16.731a50.135,50.135,0,0,0-8.35,7.967c-0.55.685-2.28,2.305-2.53,3.046V360.672h-65.16V125.834l62.68,0.047v18.793l3.84-2.906c2.82-2.012,5.76-3.915,8.77-5.717,8.5-5.1,17.99-8.809,28.69-11.763,4.73-1.308,9.79-1.774,15.04-2.671l6.75-.516,2.63-.047h5.72l5.06,0.235,3.38,0.234c3.17,0.53,6.35.645,9.37,1.312,3.47,0.764,6.91,1.362,10.17,2.343a134.926,134.926,0,0,1,15.24,5.53c26.03,11.4,47.74,32.778,56.72,61.205,1.55,4.929,2.62,10.11,3.79,15.512q0.6,3.865,1.18,7.733c0.7,3.8.45,7.818,1.07,11.763l0.15,3.608c0.04,1.359.09,2.719,0.14,4.077l0.09,6.7V360.672ZM1046.07,179.119l-2.15.094-4.92.468c-4.38.82-8.55,1.455-12.29,2.906-18.95,7.359-30.132,19.255-37.5,38.194-1.577,4.057-2.3,8.56-3.187,13.31q-0.235,2.672-.469,5.342a21.523,21.523,0,0,0-.094,5.952c0.32,1.976.007,3.86,0.328,5.718a91.962,91.962,0,0,0,2.3,11.481c6.427,20.582,19.032,33.35,38.482,40.913a75.735,75.735,0,0,0,13.36,3.281l5.39,0.468a24.54,24.54,0,0,0,6.24.094l3.05-.094,4.45-.422a101.227,101.227,0,0,0,10.78-2.155,76.2,76.2,0,0,0,22.27-10.5c2.22-1.565,4.19-3.387,6.28-5.061a44.8,44.8,0,0,0,7.08-7.358l2.67-3.374v-70.25c-0.95-1.125-1.91-2.249-2.86-3.374a50.837,50.837,0,0,0-8.2-8.014C1084.01,186.485,1069.49,179.122,1046.07,179.119Zm703.29,0-2.2.094-4.64.422c-4.71.859-9.18,1.447-13.17,3a58.032,58.032,0,0,0-8.21,3.468c-2.79,1.626-5.55,3.14-8.11,4.967-10.03,7.16-17.06,17.076-21.89,29.478-1.54,3.955-2.29,8.321-3.19,12.935-1.68,8.688-.45,20.811,1.69,27.931,6.06,20.189,18.14,33.98,36.89,41.428a78.53,78.53,0,0,0,13.55,3.7c1.84,0.369,3.67.3,5.63,0.609a39.258,39.258,0,0,0,6,.235l3-.047,5.25-.422a93.505,93.505,0,0,0,11.25-2.3c18.25-5.694,31.5-17.451,38.76-34.117a78.734,78.734,0,0,0,4.46-14.669c2.79-12.708.17-28.092-3.71-37.491C1801.35,195.59,1781.58,179.12,1749.36,179.119ZM132.857,2.167S36.966,298.6,251.072,486c0,0-152.114-40.177-251.071-281.135L62.144,159.34,28.929,140.915S56.251,88.887,132.857,2.167Zm229.284,0S425.483,278.626,251.072,486c0,0,98.13-21,243.925-281.135L432.854,159.34l33.214-18.425S438.748,88.887,362.141,2.167ZM248.034,123.231a17.885,17.885,0,1,1-17.677,17.886A17.782,17.782,0,0,1,248.034,123.231Zm0,119.01a17.884,17.884,0,1,1-17.677,17.884A17.781,17.781,0,0,1,248.034,242.241Zm0,134.7a17.885,17.885,0,1,1-17.677,17.884A17.783,17.783,0,0,1,248.034,376.938Zm15.536-345.5s-20.624-5.693-31.071,0c0,0-32.411-24.387-88.928-31.436,0,0-14.732,49.859,10.714,109.477,0,0,72.321-18.7,78.214-46.61,0,0,22.5,5.962,30-2.167a39.081,39.081,0,0,0,21.429,27.1c18.481,8.671,55.713,21.678,55.713,21.678S368.568,53.114,350.355,0C350.355,0,298.659,4.609,263.57,31.438Z"/>
</svg>
