<svg xmlns="http://www.w3.org/2000/svg" xmlns:xlink="http://www.w3.org/1999/xlink" width="28.284" height="28.284" viewBox="0 0 28.284 28.284"><defs><style>.a{fill:url(#a);}</style><linearGradient id="a" x1="0.5" x2="0.5" y2="1" gradientUnits="objectBoundingBox"><stop offset="0" stop-color="#ffca00"/><stop offset="1" stop-color="#ffaf00"/></linearGradient></defs><path class="a" d="M3.2,20A3.2,3.2,0,0,1,0,16.8V3.2A3.2,3.2,0,0,1,3.2,0H16.8A3.2,3.2,0,0,1,20,3.2v9.28a.32.32,0,0,1-.319.319H7.52a.32.32,0,0,1-.32-.319V7.52a.32.32,0,0,1,.32-.32H14.4V5.6H5.6v8.8H20v2.4A3.2,3.2,0,0,1,16.8,20Z" transform="translate(0 14.142) rotate(-45)"/></svg>