<svg xmlns="http://www.w3.org/2000/svg" xmlns:xlink="http://www.w3.org/1999/xlink" width="42.426" height="42.426" viewBox="0 0 42.426 42.426"><defs><style>.a{fill:url(#a);}</style><linearGradient id="a" x1="0.5" x2="0.5" y2="1" gradientUnits="objectBoundingBox"><stop offset="0" stop-color="#ffca00"/><stop offset="1" stop-color="#ffaf00"/></linearGradient></defs><path class="a" d="M4.8,30A4.8,4.8,0,0,1,0,25.2V4.8A4.8,4.8,0,0,1,4.8,0H25.2A4.8,4.8,0,0,1,30,4.8V18.72a.479.479,0,0,1-.48.48H11.28a.48.48,0,0,1-.48-.48V11.28a.48.48,0,0,1,.48-.48h9.844a.478.478,0,0,0,.474-.436h0V8.837h0a.479.479,0,0,0-.474-.437H8.4V21.6h0v-.437h0a.477.477,0,0,0,.473.437H30v3.6A4.8,4.8,0,0,1,25.2,30ZM8.4,8.837V8.4h.475a.478.478,0,0,0-.473.437Z" transform="translate(0 21.213) rotate(-45)"/></svg>